# xmcd CD database file
#
# Track frame offsets:
#	150
#	21194
#	36696
#	56341
#	78724
#	92901
#	111027
#	128166
#	148562
#	163167
#	181595
#	192999
#	211429
#
# Disc length: 3043 seconds
#
# Revision: 0
# Processed by: cddbd v1.5.2PL0 Copyright (c) Steve Scherf et al.
# Submitted via: CDex 1.70beta2
#
DISCID=b80be10d
DTITLE=Don Campbell Band - American Garage
DYEAR=1900
DGENRE=Country
TTITLE0=Tilt-a-Whirl
TTITLE1=Cut Off My Ear
TTITLE2=Red, White and Blue Heart
TTITLE3=Beautiful Rain
TTITLE4=Faster Than Lightnin'
TTITLE5=My Old Garage
TTITLE6=The Hero In Me
TTITLE7=Let It Show
TTITLE8=Finding Your Way Home
TTITLE9=You and Me
TTITLE10=Heavens Open Up Now
TTITLE11=Ol 55
TTITLE12=Two Out of Three Ain't Bad
EXTD=
EXTT0=
EXTT1=
EXTT2=
EXTT3=
EXTT4=
EXTT5=
EXTT6=
EXTT7=
EXTT8=
EXTT9=
EXTT10=
EXTT11=
EXTT12=
PLAYORDER=
